<svg width="317" xmlns="http://www.w3.org/2000/svg" height="96" fill="none"><g data-testid="Group"><g data-testid="nvidia-logo[1]" style="fill: rgb(0, 0, 0);"><path d="M316.33 81.107c0 1.03-.756 1.722-1.652 1.722v-.007c-.921.007-1.663-.685-1.663-1.714 0-1.03.742-1.719 1.663-1.719.896-.001 1.652.689 1.652 1.718Zm.67 0c0-1.414-1.098-2.234-2.322-2.234-1.232 0-2.33.82-2.33 2.234 0 1.413 1.098 2.237 2.33 2.237 1.224 0 2.322-.824 2.322-2.237Zm-2.707.189h.249l.576 1.012h.632l-.638-1.054c.33-.024.601-.181.601-.624 0-.552-.381-.729-1.024-.729h-.932v2.407h.536v-1.012Zm0-.407v-.58h.373c.202 0 .479.017.479.264 0 .269-.143.316-.382.316h-.47Zm-12.928-12.096 2.894 7.919h-5.879l2.985-7.919Zm-3.101-3.083-6.671 16.902h4.711l1.055-2.987h7.895l.998 2.987h5.114l-6.721-16.904-6.381.002Zm-13.393 16.908h4.779V65.705l-4.78-.002.001 16.915Zm-33.178-16.915-3.987 13.406-3.82-13.404-5.157-.002 5.455 16.915h6.886l5.499-16.915h-4.876Zm19.318 3.684h2.055c2.979 0 4.907 1.337 4.907 4.809 0 3.473-1.928 4.811-4.907 4.811h-2.055v-9.62Zm-4.739-3.684v16.915h7.748c4.128 0 5.476-.686 6.934-2.225 1.029-1.081 1.695-3.453 1.695-6.046 0-2.378-.563-4.498-1.546-5.819-1.77-2.362-4.32-2.825-8.126-2.825h-6.705ZM221 65.68v16.938h4.82V69.757l3.734.001c1.237 0 2.118.308 2.714.944.755.805 1.063 2.103 1.063 4.479v7.437h4.67V73.26c0-6.679-4.257-7.58-8.422-7.58H221Zm37.58.023.002 16.915h4.777V65.703h-4.779Z" style="fill: rgb(255, 255, 255); fill-opacity: 1;" class="fills" data-testid="svg-path"/><path d="M233.844 32.024s6.147-9.069 18.42-10.007v-3.291c-13.594 1.092-25.366 12.606-25.366 12.606s6.668 19.274 25.366 21.039v-3.497c-13.722-1.726-18.42-16.85-18.42-16.85Zm18.42 9.894v3.204c-10.37-1.85-13.249-12.63-13.249-12.63s4.979-5.516 13.249-6.411v3.515l-.016-.002c-4.34-.521-7.731 3.534-7.731 3.534s1.901 6.826 7.747 8.79Zm0-29.26v6.068c.399-.03.798-.056 1.2-.07 15.455-.521 25.525 12.676 25.525 12.676s-11.566 14.064-23.615 14.064c-1.105 0-2.139-.103-3.11-.275v3.753c.859.11 1.724.166 2.59.167 11.213 0 19.322-5.727 27.174-12.504 1.302 1.042 6.631 3.579 7.727 4.689-7.466 6.251-24.865 11.289-34.729 11.289-.951 0-1.864-.058-2.762-.144v5.273h42.62V12.658h-42.62Zm0 13.423v-4.064c.395-.028.793-.049 1.2-.062 11.113-.349 18.405 9.551 18.405 9.551s-7.875 10.937-16.32 10.937a10.22 10.22 0 0 1-3.285-.525V29.596c4.327.522 5.197 2.434 7.799 6.77l5.785-4.878s-4.223-5.539-11.342-5.539c-.774 0-1.515.054-2.242.132Z" style="fill: rgb(255, 255, 255);" class="fills" data-testid="svg-path"/></g><g data-testid="aws[1]" style="fill: rgb(0, 0, 0);"><path d="M27.06 46.122c0 1.182.12 2.142.348 2.85.252.702.576 1.47 1.02 2.304.142.22.219.476.222.738 0 .318-.192.642-.6.96l-2.016 1.344c-.242.175-.53.275-.828.288-.324 0-.642-.156-.96-.444a9.91 9.91 0 0 1-1.152-1.506 24.958 24.958 0 0 1-.99-1.89c-2.49 2.946-5.616 4.422-9.384 4.422-2.682 0-4.824-.774-6.384-2.31-1.566-1.536-2.364-3.588-2.364-6.15 0-2.724.96-4.932 2.904-6.6 1.95-1.668 4.536-2.496 7.824-2.496 1.08 0 2.202.096 3.384.252 1.182.162 2.4.42 3.672.708v-2.34c0-2.436-.51-4.134-1.5-5.124-1.02-.996-2.748-1.476-5.208-1.476-1.116 0-2.262.132-3.444.42a25.282 25.282 0 0 0-3.45 1.086 9.192 9.192 0 0 1-1.116.42 1.924 1.924 0 0 1-.51.096c-.45 0-.672-.324-.672-.996v-1.572c0-.51.06-.9.222-1.116.242-.294.55-.527.9-.678 1.11-.576 2.454-1.056 4.02-1.44 1.56-.42 3.222-.606 4.98-.606 3.798 0 6.576.864 8.364 2.592 1.758 1.728 2.652 4.356 2.652 7.884l.066 10.38Zm-12.966 4.866c1.05 0 2.136-.192 3.288-.576 1.146-.384 2.172-1.092 3.03-2.052a5.096 5.096 0 0 0 1.086-2.046c.192-.774.324-1.698.324-2.79V42.18a26.66 26.66 0 0 0-2.94-.54 23.889 23.889 0 0 0-3-.198c-2.142 0-3.708.42-4.758 1.284-1.056.864-1.56 2.082-1.56 3.684 0 1.5.378 2.622 1.176 3.396.768.798 1.884 1.182 3.354 1.182Zm25.638 3.462c-.576 0-.96-.096-1.212-.324-.258-.192-.48-.636-.672-1.248l-7.5-24.762a5.603 5.603 0 0 1-.294-1.284c0-.51.258-.798.768-.798h3.132c.6 0 1.02.096 1.242.318.258.192.45.642.642 1.248l5.364 21.21 4.98-21.21c.156-.636.348-1.056.6-1.248a2.187 2.187 0 0 1 1.284-.318h2.55c.612 0 1.02.096 1.278.318.258.192.48.642.606 1.248l5.046 21.468 5.52-21.468c.102-.465.324-.895.642-1.248a2.074 2.074 0 0 1 1.248-.318h2.97c.51 0 .798.258.798.798 0 .162-.036.324-.06.516a4.627 4.627 0 0 1-.228.798l-7.698 24.762c-.192.642-.414 1.062-.666 1.254a2.039 2.039 0 0 1-1.218.318h-2.742c-.606 0-1.02-.096-1.278-.318-.258-.228-.48-.642-.606-1.284l-4.95-20.658-4.92 20.634c-.156.642-.348 1.056-.6 1.278-.258.228-.708.324-1.278.324l-2.748-.006Zm41.028.864a21.067 21.067 0 0 1-4.92-.576c-1.596-.384-2.838-.804-3.672-1.284-.51-.288-.858-.606-.99-.9a2.269 2.269 0 0 1-.186-.894v-1.632c0-.672.252-.996.732-.996.196 0 .391.033.576.096.192.066.48.192.798.324a17.4 17.4 0 0 0 3.51 1.122 19.42 19.42 0 0 0 3.798.384c2.016 0 3.576-.354 4.662-1.056a3.45 3.45 0 0 0 1.662-3.048 3.118 3.118 0 0 0-.864-2.238c-.57-.612-1.656-1.158-3.222-1.668l-4.632-1.44c-2.328-.738-4.056-1.83-5.106-3.27a7.65 7.65 0 0 1-1.596-4.644c0-1.344.288-2.532.858-3.558a8.328 8.328 0 0 1 2.304-2.628c.96-.732 2.04-1.278 3.318-1.662 1.278-.384 2.616-.546 4.02-.546.708 0 1.44.03 2.142.126.732.096 1.404.228 2.076.36.636.156 1.248.312 1.818.51.576.192 1.02.384 1.344.576.377.189.705.462.96.798.205.312.304.683.282 1.056v1.506c0 .672-.252 1.026-.732 1.026a3.32 3.32 0 0 1-1.212-.384 14.573 14.573 0 0 0-6.132-1.248c-1.818 0-3.258.288-4.248.9-.99.6-1.5 1.536-1.5 2.85 0 .894.318 1.662.96 2.274.636.606 1.818 1.212 3.51 1.758l4.536 1.44c2.298.738 3.96 1.764 4.95 3.078.99 1.314 1.464 2.82 1.464 4.488 0 1.38-.282 2.622-.828 3.714a8.612 8.612 0 0 1-2.328 2.82c-.99.798-2.172 1.38-3.546 1.794-1.44.45-2.94.672-4.566.672Z" style="fill: rgb(255, 255, 255);" class="fills" data-testid="svg-path"/><g data-testid="svg-g" style="fill: rgb(0, 0, 0);"><path d="M86.79 70.878c-10.5 7.782-25.764 11.916-38.886 11.916-18.39 0-34.962-6.822-47.478-18.162-.99-.9-.096-2.118 1.08-1.41 13.542 7.878 30.24 12.654 47.52 12.654 11.646 0 24.45-2.436 36.234-7.434 1.758-.798 3.258 1.152 1.53 2.436Z" fill-rule="evenodd" clip-rule="evenodd" style="fill: rgb(255, 255, 255);" class="fills" data-testid="svg-path"/><path d="M91.164 65.88c-1.338-1.722-8.874-.828-12.288-.414-1.02.132-1.182-.768-.258-1.44 6-4.23 15.87-3.012 17.016-1.602 1.152 1.44-.318 11.34-5.94 16.08-.858.738-1.686.36-1.308-.6 1.278-3.18 4.122-10.32 2.778-12.024Z" fill-rule="evenodd" clip-rule="evenodd" style="fill: rgb(255, 255, 255);" class="fills" data-testid="svg-path"/></g></g></g></svg>